<svg xmlns="http://www.w3.org/2000/svg" xmlns:xlink="http://www.w3.org/1999/xlink" fill="none" version="1.1" width="268" height="172" viewBox="0 0 268 172"><defs><radialGradient cx="0" cy="0" r="1" gradientUnits="userSpaceOnUse" id="master_svg0_24_4560" gradientTransform="translate(0 0) rotate(52.71525238895989) scale(216.17959220028408 216.17959220028408)"><stop offset="0%" stop-color="#148FF9" stop-opacity="1"/><stop offset="100.00001192092896%" stop-color="#3F6AFF" stop-opacity="1"/></radialGradient><linearGradient x1="0.5" y1="0" x2="0.5" y2="1" id="master_svg1_28_0245"><stop offset="0%" stop-color="#3F6AFF" stop-opacity="1"/><stop offset="98.33330512046814%" stop-color="#168DF9" stop-opacity="1"/></linearGradient></defs><g style="mix-blend-mode:passthrough"><g style="mix-blend-mode:passthrough"><path d="M0,0L66,86L0,172L40,172L86,112.061L106,86L86,59.9394L40,0L0,0ZM172,0L114,75.5758L94,49.5152L132,0L172,0ZM132,172L94,122.485L114,96.4242L172,172L132,172Z" fill-rule="evenodd" fill="url(#master_svg0_24_4560)" fill-opacity="1"/></g><g style="mix-blend-mode:passthrough"><path d="M252.0471,75.21379999999999Q259.6453,72,268,72L268,32Q251.53390000000002,32,236.465,38.37359Q221.9254,44.5233,210.7243,55.7243Q199.5234,66.9253,193.3736,81.465Q187.00000572205,96.5339,187.00000762939,113L187,172L227,172L227,113Q227,104.6453,230.2138,97.0471Q233.3243,89.69290000000001,239.0086,84.0086Q244.6929,78.3243,252.0471,75.21379999999999Z" fill-rule="evenodd" fill="url(#master_svg1_28_0245)" fill-opacity="1"/></g></g></svg>